SplineFontDB: 3.0
FontName: Duployan
FullName: Duployan
FamilyName: Duployan
Weight: Regular
Copyright: Copyright 2018 David Corbett.\nCopyright 2015 Google Inc. All Rights Reserved.
Version: 1.000
ItalicAngle: 0
UnderlinePosition: -100
UnderlineWidth: 50
Ascent: 800
Descent: 200
InvalidEm: 0
LayerCount: 2
Layer: 0 0 "Back" 1
Layer: 1 0 "Fore" 0
XUID: [1021 866 925171143 11869304]
FSType: 0
OS2Version: 0
OS2_WeightWidthSlopeOnly: 0
OS2_UseTypoMetrics: 1
CreationTime: 1523136075
ModificationTime: 1524416487
PfmFamily: 17
TTFWeight: 400
TTFWidth: 5
LineGap: 90
VLineGap: 0
OS2TypoAscent: 0
OS2TypoAOffset: 1
OS2TypoDescent: 0
OS2TypoDOffset: 1
OS2TypoLinegap: 90
OS2WinAscent: 0
OS2WinAOffset: 1
OS2WinDescent: 0
OS2WinDOffset: 1
HheadAscent: 0
HheadAOffset: 1
HheadDescent: 0
HheadDOffset: 1
OS2Vendor: 'PfEd'
Lookup: 260 0 0 "'mark' absolutely positioned marks" { "'mark' absolutely positioned marks-1"  "'mark' absolutely positioned marks-2"  } ['mark' ('DFLT' <'dflt' > 'dupl' <'dflt' > ) ]
MarkAttachClasses: 1
DEI: 91125

StartChar: zero
Encoding: 48 48 2
Width: 584
Flags: HW
LayerCount: 2
Fore
SplineSet
529 358 m 0
 529 280.666666667 521 214.666666667 505 160 c 128
 489 105.333333333 463.5 63.3333333333 428.5 34 c 128
 393.5 4.66666666667 347.666666667 -10 291 -10 c 0
 210.333333333 -10 150.833333333 22.5 112.5 87.5 c 128
 74.1666666667 152.5 55 242.666666667 55 358 c 0
 55 435.333333333 62.8333333333 501.333333333 78.5 556 c 128
 94.1666666667 610.666666667 119.333333333 652.5 154 681.5 c 128
 188.666666667 710.5 234.333333333 725 291 725 c 0
 371 725 430.666666667 692.833333333 470 628.5 c 128
 509.333333333 564.166666667 529 474 529 358 c 0
143 358 m 0
 143 260 154.166666667 186.666666667 176.5 138 c 128
 198.833333333 89.3333333333 237 65 291 65 c 0
 344.333333333 65 382.5 89.1666666667 405.5 137.5 c 128
 428.5 185.833333333 440 259.333333333 440 358 c 0
 440 455.333333333 428.5 528.333333333 405.5 577 c 128
 382.5 625.666666667 344.333333333 650 291 650 c 0
 237 650 198.833333333 625.666666667 176.5 577 c 128
 154.166666667 528.333333333 143 455.333333333 143 358 c 0
EndSplineSet
EndChar

StartChar: one
Encoding: 49 49 3
Width: 441
Flags: HW
LayerCount: 2
Fore
SplineSet
205 0 m 1
 205 499 l 2
 205 527.666666667 205.333333333 550.666666667 206 568 c 128
 206.666666667 585.333333333 207.666666667 603.333333333 209 622 c 1
 198.333333333 611.333333333 188.5 602.333333333 179.5 595 c 128
 170.5 587.666666667 159.666666667 578.333333333 147 567 c 2
 71 505 l 1
 25 564 l 1
 218 714 l 1
 291 714 l 1
 291 0 l 1
 205 0 l 1
EndSplineSet
EndChar

StartChar: two
Encoding: 50 50 4
Width: 555
Flags: HW
LayerCount: 2
Fore
SplineSet
38 0 m 1
 38 73 l 1
 225 262 l 2
 260.333333333 298 290.5 330 315.5 358 c 128
 340.5 386 359.333333333 413.333333333 372 440 c 128
 384.666666667 466.666666667 391 496.333333333 391 529 c 0
 391 568.333333333 379.333333333 598.166666667 356 618.5 c 128
 332.666666667 638.833333333 302.333333333 649 265 649 c 0
 229.666666667 649 199 643 173 631 c 128
 147 619 120.333333333 602.333333333 93 581 c 1
 46 640 l 1
 74 663.333333333 106.166666667 683.166666667 142.5 699.5 c 128
 178.833333333 715.833333333 219.666666667 724 265 724 c 0
 331.666666667 724 384.333333333 707 423 673 c 128
 461.666666667 639 481 592.666666667 481 534 c 0
 481 496.666666667 473.333333333 461.666666667 458 429 c 128
 442.666666667 396.333333333 421.333333333 364 394 332 c 128
 366.666666667 300 334.666666667 266.333333333 298 231 c 2
 149 84 l 1
 149 80 l 1
 510 80 l 1
 510 0 l 1
 38 0 l 1
EndSplineSet
EndChar

StartChar: three
Encoding: 51 51 5
Width: 572
Flags: HW
LayerCount: 2
Fore
SplineSet
493 547 m 0
 493 499 479.5 460.833333333 452.5 432.5 c 128
 425.5 404.166666667 389.666666667 385.333333333 345 376 c 1
 345 372 l 1
 401.666666667 365.333333333 444.166666667 347.333333333 472.5 318 c 128
 500.833333333 288.666666667 515 250.333333333 515 203 c 0
 515 161 505.333333333 124 486 92 c 128
 466.666666667 60 436.833333333 35 396.5 17 c 128
 356.166666667 -1 304.333333333 -10 241 -10 c 0
 203.666666667 -10 169 -7.16666666667 137 -1.5 c 128
 105 4.16666666667 74.3333333333 14.3333333333 45 29 c 1
 45 111 l 1
 75 95.6666666667 107.333333333 84 142 76 c 128
 176.666666667 68 210 64 242 64 c 0
 306 64 352.166666667 76.5 380.5 101.5 c 128
 408.833333333 126.5 423 161 423 205 c 0
 423 249.666666667 405.5 281.833333333 370.5 301.5 c 128
 335.5 321.166666667 286.333333333 331 223 331 c 2
 154 331 l 1
 154 406 l 1
 224 406 l 2
 282.666666667 406 327.166666667 418.333333333 357.5 443 c 128
 387.833333333 467.666666667 403 500.333333333 403 541 c 0
 403 575.666666667 391.333333333 602.5 368 621.5 c 128
 344.666666667 640.5 313 650 273 650 c 0
 234.333333333 650 201.333333333 644.333333333 174 633 c 128
 146.666666667 621.666666667 119.666666667 607.333333333 93 590 c 1
 49 650 l 1
 74.3333333333 670 105.833333333 687.333333333 143.5 702 c 128
 181.166666667 716.666666667 224 724 272 724 c 0
 346.666666667 724 402.166666667 707.333333333 438.5 674 c 128
 474.833333333 640.666666667 493 598.333333333 493 547 c 0
EndSplineSet
EndChar

StartChar: four
Encoding: 52 52 6
Width: 572
Flags: HW
LayerCount: 2
Fore
SplineSet
363 0 m 1
 363 162 l 1
 21 162 l 1
 21 237 l 1
 357 718 l 1
 448 718 l 1
 448 241 l 1
 552 241 l 1
 552 162 l 1
 448 162 l 1
 448 0 l 1
 363 0 l 1
363 241 m 1
 363 466 l 2
 363 500.666666667 363.333333333 530.666666667 364 556 c 128
 364.666666667 581.333333333 365.666666667 602.666666667 367 620 c 1
 363 620 l 1
 355.666666667 607.333333333 346.666666667 592.666666667 336 576 c 128
 325.333333333 559.333333333 316.666666667 546 310 536 c 2
 107 241 l 1
 363 241 l 1
EndSplineSet
EndChar

StartChar: five
Encoding: 53 53 7
Width: 572
Flags: HW
LayerCount: 2
Fore
SplineSet
275 438 m 0
 347.666666667 438 405.833333333 419.666666667 449.5 383 c 128
 493.166666667 346.333333333 515 294.666666667 515 228 c 0
 515 154 491.5 95.8333333333 444.5 53.5 c 128
 397.5 11.1666666667 332 -10 248 -10 c 0
 210.666666667 -10 176 -6.66666666667 144 0 c 128
 112 6.66666666667 85 16.3333333333 63 29 c 1
 63 112 l 1
 87 97.3333333333 116.166666667 85.8333333333 150.5 77.5 c 128
 184.833333333 69.1666666667 217.666666667 65 249 65 c 0
 301.666666667 65 344.166666667 77.5 376.5 102.5 c 128
 408.833333333 127.5 425 166.333333333 425 219 c 0
 425 265.666666667 410.666666667 301.5 382 326.5 c 128
 353.333333333 351.5 308 364 246 364 c 0
 227.333333333 364 206 362.333333333 182 359 c 128
 158 355.666666667 138.666666667 352.333333333 124 349 c 1
 80 377 l 1
 107 714 l 1
 465 714 l 1
 465 634 l 1
 182 634 l 1
 165 427 l 1
 176.333333333 429 191.666666667 431.333333333 211 434 c 128
 230.333333333 436.666666667 251.666666667 438 275 438 c 0
EndSplineSet
EndChar

StartChar: six
Encoding: 54 54 8
Width: 572
Flags: HW
LayerCount: 2
Fore
SplineSet
55 305 m 0
 55 356.333333333 59.5 406.833333333 68.5 456.5 c 128
 77.5 506.166666667 93.8333333333 551.166666667 117.5 591.5 c 128
 141.166666667 631.833333333 174.333333333 664 217 688 c 128
 259.666666667 712 314.666666667 724 382 724 c 0
 396 724 411.5 723.333333333 428.5 722 c 128
 445.5 720.666666667 459.333333333 718.333333333 470 715 c 1
 470 640 l 1
 458 644 444.333333333 647 429 649 c 128
 413.666666667 651 398.666666667 652 384 652 c 0
 338 652 299.666666667 644.333333333 269 629 c 128
 238.333333333 613.666666667 214.166666667 592.666666667 196.5 566 c 128
 178.833333333 539.333333333 166 508.666666667 158 474 c 128
 150 439.333333333 145 402.333333333 143 363 c 1
 149 363 l 1
 164.333333333 386.333333333 185.666666667 406.166666667 213 422.5 c 128
 240.333333333 438.833333333 275.333333333 447 318 447 c 0
 380 447 430 428.166666667 468 390.5 c 128
 506 352.833333333 525 299.333333333 525 230 c 0
 525 155.333333333 504.5 96.6666666667 463.5 54 c 128
 422.5 11.3333333333 367.333333333 -10 298 -10 c 0
 252.666666667 -10 211.666666667 1.33333333333 175 24 c 128
 138.333333333 46.6666666667 109.166666667 81.3333333333 87.5 128 c 128
 65.8333333333 174.666666667 55 233.666666667 55 305 c 0
297 64 m 0
 339 64 373 77.5 399 104.5 c 128
 425 131.5 438 173.333333333 438 230 c 0
 438 275.333333333 426.5 311.333333333 403.5 338 c 128
 380.5 364.666666667 346 378 300 378 c 0
 268.666666667 378 241.333333333 371.5 218 358.5 c 128
 194.666666667 345.5 176.5 328.833333333 163.5 308.5 c 128
 150.5 288.166666667 144 267.666666667 144 247 c 0
 144 218.333333333 149.666666667 189.833333333 161 161.5 c 128
 172.333333333 133.166666667 189.333333333 109.833333333 212 91.5 c 128
 234.666666667 73.1666666667 263 64 297 64 c 0
EndSplineSet
EndChar

StartChar: seven
Encoding: 55 55 9
Width: 511
Flags: HW
LayerCount: 2
Fore
SplineSet
100 0 m 1
 393 634 l 1
 8 634 l 1
 8 714 l 1
 487 714 l 1
 487 646 l 1
 197 0 l 1
 100 0 l 1
EndSplineSet
EndChar

StartChar: eight
Encoding: 56 56 10
Width: 589
Flags: HW
LayerCount: 2
Fore
SplineSet
297 -10 m 0
 220.333333333 -10 161.333333333 6.83333333333 120 40.5 c 128
 78.6666666667 74.1666666667 58 121.333333333 58 182 c 0
 58 214 64.8333333333 242.166666667 78.5 266.5 c 128
 92.1666666667 290.833333333 110.166666667 311.666666667 132.5 329 c 128
 154.833333333 346.333333333 179.333333333 361 206 373 c 1
 171.333333333 393 141.833333333 417.166666667 117.5 445.5 c 128
 93.1666666667 473.833333333 81 510 81 554 c 0
 81 590 90.3333333333 620.666666667 109 646 c 128
 127.666666667 671.333333333 153 690.666666667 185 704 c 128
 217 717.333333333 253.333333333 724 294 724 c 0
 356.666666667 724 408 709.333333333 448 680 c 128
 488 650.666666667 508 608.333333333 508 553 c 0
 508 524.333333333 501.833333333 499.333333333 489.5 478 c 128
 477.166666667 456.666666667 460.666666667 437.833333333 440 421.5 c 128
 419.333333333 405.166666667 396.666666667 390.666666667 372 378 c 1
 401.333333333 363.333333333 428 347.333333333 452 330 c 128
 476 312.666666667 495.166666667 292.333333333 509.5 269 c 128
 523.833333333 245.666666667 531 217.666666667 531 185 c 0
 531 125 509.833333333 77.5 467.5 42.5 c 128
 425.166666667 7.5 368.333333333 -10 297 -10 c 0
298 412 m 1
 332.666666667 426.666666667 361.833333333 444.333333333 385.5 465 c 128
 409.166666667 485.666666667 421 514 421 550 c 0
 421 583.333333333 409.333333333 608.833333333 386 626.5 c 128
 362.666666667 644.166666667 331.666666667 653 293 653 c 0
 256.333333333 653 226.166666667 644.166666667 202.5 626.5 c 128
 178.833333333 608.833333333 167 583.333333333 167 550 c 0
 167 525.333333333 172.833333333 504.666666667 184.5 488 c 128
 196.166666667 471.333333333 212 457.166666667 232 445.5 c 128
 252 433.833333333 274 422.666666667 298 412 c 1
295 60 m 0
 343.666666667 60 380.833333333 71.5 406.5 94.5 c 128
 432.166666667 117.5 445 147.333333333 445 184 c 0
 445 218.666666667 431.333333333 247.5 404 270.5 c 128
 376.666666667 293.5 340.333333333 313.666666667 295 331 c 2
 279 337 l 1
 235 317.666666667 201.5 296 178.5 272 c 128
 155.5 248 144 217.666666667 144 181 c 0
 144 146.333333333 156.333333333 117.5 181 94.5 c 128
 205.666666667 71.5 243.666666667 60 295 60 c 0
EndSplineSet
EndChar

StartChar: nine
Encoding: 57 57 11
Width: 572
Flags: HW
LayerCount: 2
Fore
SplineSet
520 409 m 0
 520 357.666666667 515.5 307.166666667 506.5 257.5 c 128
 497.5 207.833333333 481.166666667 162.833333333 457.5 122.5 c 128
 433.833333333 82.1666666667 400.5 50 357.5 26 c 128
 314.5 2 259.333333333 -10 192 -10 c 0
 178.666666667 -10 163 -9.16666666667 145 -7.5 c 128
 127 -5.83333333333 112.666666667 -3.33333333333 102 0 c 1
 102 75 l 1
 128 66.3333333333 157.333333333 62 190 62 c 0
 236.666666667 62 275.166666667 69.6666666667 305.5 85 c 128
 335.833333333 100.333333333 360 121.166666667 378 147.5 c 128
 396 173.833333333 409 204.5 417 239.5 c 128
 425 274.5 429.666666667 311.333333333 431 350 c 1
 425 350 l 1
 409.666666667 327.333333333 388.333333333 307.833333333 361 291.5 c 128
 333.666666667 275.166666667 298.333333333 267 255 267 c 0
 193.666666667 267 144.166666667 285.833333333 106.5 323.5 c 128
 68.8333333333 361.166666667 50 414.333333333 50 483 c 0
 50 533 59.3333333333 576 78 612 c 128
 96.6666666667 648 123.166666667 675.666666667 157.5 695 c 128
 191.833333333 714.333333333 232 724 278 724 c 0
 323.333333333 724 364.333333333 712.5 401 689.5 c 128
 437.666666667 666.5 466.666666667 631.833333333 488 585.5 c 128
 509.333333333 539.166666667 520 480.333333333 520 409 c 0
278 650 m 0
 236.666666667 650 202.833333333 636.333333333 176.5 609 c 128
 150.166666667 581.666666667 137 540 137 484 c 0
 137 438.666666667 148.166666667 402.833333333 170.5 376.5 c 128
 192.833333333 350.166666667 227.333333333 337 274 337 c 0
 306 337 333.666666667 343.333333333 357 356 c 128
 380.333333333 368.666666667 398.5 385 411.5 405 c 128
 424.5 425 431 445.666666667 431 467 c 0
 431 495.666666667 425.333333333 524 414 552 c 128
 402.666666667 580 385.666666667 603.333333333 363 622 c 128
 340.333333333 640.666666667 312 650 278 650 c 0
EndSplineSet
EndChar

StartChar: equal
Encoding: 61 61 12
Width: 572
Flags: HW
LayerCount: 2
Fore
SplineSet
56 416 m 1
 56 487 l 1
 514 487 l 1
 514 416 l 1
 56 416 l 1
56 217 m 1
 56 288 l 1
 514 288 l 1
 514 217 l 1
 56 217 l 1
EndSplineSet
EndChar

StartChar: period
Encoding: 46 46 13
Width: 268
Flags: HW
LayerCount: 2
Fore
SplineSet
72 54 m 0
 72 78.6666666667 78 96 90 106 c 128
 102 116 116.333333333 121 133 121 c 256
 149.666666667 121 164.333333333 116 177 106 c 128
 189.666666667 96 196 78.6666666667 196 54 c 0
 196 30 189.666666667 12.6666666667 177 2 c 128
 164.333333333 -8.66666666667 149.666666667 -14 133 -14 c 256
 116.333333333 -14 102 -8.66666666667 90 2 c 128
 78 12.6666666667 72 30 72 54 c 0
EndSplineSet
EndChar

StartChar: plus
Encoding: 43 43 14
Width: 572
Flags: HW
LayerCount: 2
Fore
SplineSet
321 388 m 1
 520 388 l 1
 520 317 l 1
 321 317 l 1
 321 111 l 1
 249 111 l 1
 249 317 l 1
 50 317 l 1
 50 388 l 1
 249 388 l 1
 249 595 l 1
 321 595 l 1
 321 388 l 1
EndSplineSet
EndChar

StartChar: less
Encoding: 60 60 15
Width: 572
Flags: HW
LayerCount: 2
Fore
SplineSet
521 116 m 1
 50 323 l 1
 50 373 l 1
 521 608 l 1
 521 530 l 1
 144 352 l 1
 521 194 l 1
 521 116 l 1
EndSplineSet
EndChar

StartChar: greater
Encoding: 62 62 16
Width: 572
Flags: HW
LayerCount: 2
Fore
SplineSet
50 194 m 1
 427 351 l 1
 50 530 l 1
 50 608 l 1
 521 373 l 1
 521 323 l 1
 50 116 l 1
 50 194 l 1
EndSplineSet
EndChar

StartChar: question
Encoding: 63 63 17
Width: 434
Flags: HW
LayerCount: 2
Fore
SplineSet
140 201 m 1
 140 228 l 2
 140 253.333333333 142.5 275.166666667 147.5 293.5 c 128
 152.5 311.833333333 161.166666667 329.166666667 173.5 345.5 c 128
 185.833333333 361.833333333 202.666666667 379.333333333 224 398 c 0
 249.333333333 419.333333333 269.333333333 437.5 284 452.5 c 128
 298.666666667 467.5 309 482 315 496 c 128
 321 510 324 527 324 547 c 0
 324 579 313.666666667 603.666666667 293 621 c 128
 272.333333333 638.333333333 242.333333333 647 203 647 c 0
 170.333333333 647 141.333333333 642.833333333 116 634.5 c 128
 90.6666666667 626.166666667 66.3333333333 616.333333333 43 605 c 1
 12 675 l 1
 38.6666666667 689 68.1666666667 700.666666667 100.5 710 c 128
 132.833333333 719.333333333 169 724 209 724 c 0
 272.333333333 724 321.333333333 708.333333333 356 677 c 128
 390.666666667 645.666666667 408 603 408 549 c 0
 408 519 403.166666667 493.5 393.5 472.5 c 128
 383.833333333 451.5 370.166666667 432.166666667 352.5 414.5 c 128
 334.833333333 396.833333333 314 378 290 358 c 0
 267.333333333 339.333333333 250.333333333 323 239 309 c 128
 227.666666667 295 220 281 216 267 c 128
 212 253 210 236.666666667 210 218 c 2
 210 201 l 1
 140 201 l 1
117 54 m 0
 117 78.6666666667 122.833333333 96 134.5 106 c 128
 146.166666667 116 161 121 179 121 c 0
 195.666666667 121 210 116 222 106 c 128
 234 96 240 78.6666666667 240 54 c 0
 240 30 234 12.6666666667 222 2 c 128
 210 -8.66666666667 195.666666667 -14 179 -14 c 0
 161 -14 146.166666667 -8.66666666667 134.5 2 c 128
 122.833333333 12.6666666667 117 30 117 54 c 0
EndSplineSet
EndChar

StartChar: divide
Encoding: 247 247 18
Width: 572
Flags: HW
LayerCount: 2
Fore
SplineSet
285 462 m 256
 269.666666667 462 256.5 466.833333333 245.5 476.5 c 128
 234.5 486.166666667 229 501.666666667 229 523 c 0
 229 545.666666667 234.5 561.333333333 245.5 570 c 128
 256.5 578.666666667 269.666666667 583 285 583 c 256
 300.333333333 583 313.333333333 578.666666667 324 570 c 128
 334.666666667 561.333333333 340 545.666666667 340 523 c 0
 340 501.666666667 334.666666667 486.166666667 324 476.5 c 128
 313.333333333 466.833333333 300.333333333 462 285 462 c 256
50 317 m 1
 50 388 l 1
 521 388 l 1
 521 317 l 1
 50 317 l 1
285 121 m 256
 269.666666667 121 256.5 125.833333333 245.5 135.5 c 128
 234.5 145.166666667 229 160.666666667 229 182 c 0
 229 204.666666667 234.5 220.333333333 245.5 229 c 128
 256.5 237.666666667 269.666666667 242 285 242 c 256
 300.333333333 242 313.333333333 237.666666667 324 229 c 128
 334.666666667 220.333333333 340 204.666666667 340 182 c 0
 340 160.666666667 334.666666667 145.166666667 324 135.5 c 128
 313.333333333 125.833333333 300.333333333 121 285 121 c 256
EndSplineSet
EndChar

StartChar: gravecomb
Encoding: 768 768 19
Width: 0
Flags: W
AnchorPoint: "above" -363 536 mark 0
LayerCount: 2
Fore
SplineSet
-388 766 m 1
 -377 744 -377 744 -360.5 716.5 c 0
 -344 689 -344 689 -325.5 662.5 c 0
 -307 636 -307 636 -292 618 c 1
 -292 606 l 1
 -351 606 l 1
 -374 624 -374 624 -403 652.5 c 0
 -432 681 -432 681 -456.5 709.5 c 0
 -481 738 -481 738 -493 756 c 1
 -493 766 l 1
 -388 766 l 1
EndSplineSet
EndChar

StartChar: acutecomb
Encoding: 769 769 20
Width: 0
Flags: W
AnchorPoint: "above" -272 536 mark 0
LayerCount: 2
Fore
SplineSet
-144 766 m 1
 -144 756 l 1
 -157 738 -157 738 -181.5 709.5 c 0
 -206 681 -206 681 -234.5 652.5 c 0
 -263 624 -263 624 -287 606 c 1
 -345 606 l 1
 -345 618 l 1
 -331 636 -331 636 -313 662.5 c 0
 -295 689 -295 689 -278 716.5 c 0
 -261 744 -261 744 -250 766 c 1
 -144 766 l 1
EndSplineSet
EndChar

StartChar: uni0304
Encoding: 772 772 21
Width: 0
Flags: W
AnchorPoint: "above" 0 536 mark 0
LayerCount: 2
Fore
SplineSet
149 677 m 1
 149 606 l 1
 -148 606 l 1
 -148 677 l 1
 149 677 l 1
EndSplineSet
EndChar

StartChar: uni0307
Encoding: 775 775 22
Width: 0
Flags: W
AnchorPoint: "above" 0 536 mark 0
LayerCount: 2
Fore
SplineSet
1 737 m 0
 21 737 21 737 36.5 723.5 c 0
 52 710 52 710 52 681 c 256
 52 652 52 652 36.5 638.5 c 0
 21 625 21 625 1 625 c 0
 -21 625 -21 625 -36 638.5 c 0
 -51 652 -51 652 -51 681 c 256
 -51 710 -51 710 -36 723.5 c 0
 -21 737 -21 737 1 737 c 0
EndSplineSet
EndChar

StartChar: uni0324
Encoding: 804 804 23
Width: 0
Flags: W
AnchorPoint: "below" -1 0 mark 0
LayerCount: 2
Fore
SplineSet
-141 -125 m 0
 -141 -99 -141 -99 -127.5 -87.5 c 0
 -114 -76 -114 -76 -94 -76 c 0
 -75 -76 -75 -76 -61 -87.5 c 0
 -47 -99 -47 -99 -47 -125 c 0
 -47 -150 -47 -150 -61 -162.5 c 0
 -75 -175 -75 -175 -94 -175 c 0
 -114 -175 -114 -175 -127.5 -162.5 c 0
 -141 -150 -141 -150 -141 -125 c 0
47 -125 m 0
 47 -99 47 -99 60.5 -87.5 c 0
 74 -76 74 -76 93 -76 c 256
 112 -76 112 -76 126 -87.5 c 0
 140 -99 140 -99 140 -125 c 0
 140 -150 140 -150 126 -162.5 c 0
 112 -175 112 -175 93 -175 c 256
 74 -175 74 -175 60.5 -162.5 c 0
 47 -150 47 -150 47 -125 c 0
EndSplineSet
EndChar

StartChar: uni0317
Encoding: 791 791 24
Width: 0
Flags: W
AnchorPoint: "below" 1 0 mark 0
LayerCount: 2
Fore
SplineSet
101 -44 m 1
 101 -54 l 1
 88 -72 88 -72 63.5 -100.5 c 0
 39 -129 39 -129 10.5 -157.5 c 0
 -18 -186 -18 -186 -42 -204 c 1
 -100 -204 l 1
 -100 -192 l 1
 -86 -174 -86 -174 -68 -147.5 c 0
 -50 -121 -50 -121 -33 -93.5 c 0
 -16 -66 -16 -66 -5 -44 c 1
 101 -44 l 1
EndSplineSet
EndChar

StartChar: uni0316
Encoding: 790 790 25
Width: 0
Flags: W
AnchorPoint: "below" 1 0 mark 0
LayerCount: 2
Fore
SplineSet
5 -44 m 1
 16 -66 16 -66 32.5 -93.5 c 0
 49 -121 49 -121 67.5 -147.5 c 0
 86 -174 86 -174 101 -192 c 1
 101 -204 l 1
 42 -204 l 1
 19 -186 19 -186 -10 -157.5 c 0
 -39 -129 -39 -129 -63.5 -100.5 c 0
 -88 -72 -88 -72 -100 -54 c 1
 -100 -44 l 1
 5 -44 l 1
EndSplineSet
EndChar

StartChar: uni0308
Encoding: 776 776 26
Width: 0
Flags: W
AnchorPoint: "above" 0 536 mark 0
LayerCount: 2
Fore
SplineSet
-141 681 m 0
 -141 707 -141 707 -127.5 718.5 c 0
 -114 730 -114 730 -94 730 c 0
 -75 730 -75 730 -61 718.5 c 0
 -47 707 -47 707 -47 681 c 0
 -47 656 -47 656 -61 643.5 c 0
 -75 631 -75 631 -94 631 c 0
 -114 631 -114 631 -127.5 643.5 c 0
 -141 656 -141 656 -141 681 c 0
47 681 m 0
 47 707 47 707 60.5 718.5 c 0
 74 730 74 730 93 730 c 256
 112 730 112 730 126 718.5 c 0
 140 707 140 707 140 681 c 0
 140 656 140 656 126 643.5 c 0
 112 631 112 631 93 631 c 256
 74 631 74 631 60.5 643.5 c 0
 47 656 47 656 47 681 c 0
EndSplineSet
EndChar

StartChar: uni25CC
Encoding: 9676 9676 27
Width: 510
Flags: W
AnchorPoint: "above" 254 622 basechar 0
AnchorPoint: "below" 254 0 basechar 0
LayerCount: 2
Fore
SplineSet
254 457 m 0x29
 235.333333333 457 226 466.666666667 226 486 c 0
 226 504.666666667 235.333333333 514 254 514 c 0
 274 514 284 504.666666667 284 486 c 0
 284 466.666666667 274 457 254 457 c 0x29
384 407 m 256x3180
 364.666666667 407 355 416.666666667 355 436 c 256
 355 455.333333333 364.666666667 465 384 465 c 256
 403.333333333 465 413 455.333333333 413 436 c 256
 413 416.666666667 403.333333333 407 384 407 c 256x3180
125 407 m 0
 106.333333333 407 97 416.666666667 97 436 c 256
 97 455.333333333 106.333333333 465 125 465 c 0
 144.333333333 465 154 455.333333333 154 436 c 256x33
 154 416.666666667 144.333333333 407 125 407 c 0
81 283 m 0
 61.6666666667 283 52 292.666666667 52 312 c 0
 52 330.666666667 61.6666666667 340 81 340 c 0
 99.6666666667 340 109 330.666666667 109 312 c 0x25
 109 292.666666667 99.6666666667 283 81 283 c 0
429 283 m 256
 409.666666667 283 400 292.666666667 400 312 c 0
 400 330.666666667 409.666666667 340 429 340 c 256
 448.333333333 340 458 330.666666667 458 312 c 0x2140
 458 292.666666667 448.333333333 283 429 283 c 256
125 158 m 0x63
 106.333333333 158 97 167.666666667 97 187 c 256
 97 206.333333333 106.333333333 216 125 216 c 0
 144.333333333 216 154 206.333333333 154 187 c 256
 154 167.666666667 144.333333333 158 125 158 c 0x63
384 158 m 256
 364.666666667 158 355 167.666666667 355 187 c 256
 355 206.333333333 364.666666667 216 384 216 c 256
 403.333333333 216 413 206.333333333 413 187 c 256x6180
 413 167.666666667 403.333333333 158 384 158 c 256
254 108 m 0xa1
 235.333333333 108 226 117.666666667 226 137 c 256
 226 156.333333333 235.333333333 166 254 166 c 0
 274 166 284 156.333333333 284 137 c 256
 284 117.666666667 274 108 254 108 c 0xa1
EndSplineSet
EndChar

StartChar: .notdef
Encoding: 1114112 -1 28
Width: 600
Flags: W
LayerCount: 2
Fore
SplineSet
94 0 m 1
 94 714 l 1
 505 714 l 1
 505 0 l 1
 94 0 l 1
145 51 m 1
 454 51 l 1
 454 663 l 1
 145 663 l 1
 145 51 l 1
EndSplineSet
EndChar
